<?xml version="1.0" standalone="no"?>
<!DOCTYPE svg PUBLIC "-//W3C//DTD SVG 20010904//EN"
 "http://www.w3.org/TR/2001/REC-SVG-20010904/DTD/svg10.dtd">
<svg version="1.0" xmlns="http://www.w3.org/2000/svg"
 width="180.000000pt" height="180.000000pt" viewBox="0 0 180.000000 180.000000"
 preserveAspectRatio="xMidYMid meet">
<metadata>
Created by potrace 1.11, written by Peter Selinger 2001-2013
</metadata>
<g transform="translate(0.000000,180.000000) scale(0.100000,-0.100000)"
fill="#000000" stroke="none">
<path d="M0 1770 c0 -16 5 -30 10 -30 13 0 13 -37 0 -45 -5 -3 -10 -35 -10
-71 0 -60 2 -66 32 -93 25 -22 36 -27 46 -19 7 6 11 17 8 25 -3 7 0 13 6 13 6
0 8 3 5 7 -4 3 1 12 11 19 10 7 25 38 32 69 13 54 14 56 44 53 29 -3 31 -5 30
-46 0 -29 -7 -47 -20 -57 -17 -13 -17 -14 -1 -15 24 0 57 35 63 69 6 27 8 29
35 19 16 -5 29 -14 29 -19 0 -13 54 -11 68 3 9 9 12 9 12 0 0 -7 6 -12 14 -12
15 0 39 54 29 64 -4 3 3 6 15 6 15 0 24 10 32 36 7 19 10 38 7 41 -10 9 -27
-8 -27 -28 0 -10 -5 -19 -11 -19 -7 0 -8 11 -4 31 6 24 4 30 -6 27 -8 -3 -19
-31 -25 -64 -10 -57 -11 -59 -40 -57 -22 2 -25 0 -14 -7 12 -8 11 -10 -7 -10
-12 0 -30 10 -40 23 -11 14 -27 21 -43 20 l-25 -2 25 7 c14 4 29 17 35 29 10
24 54 37 72 21 7 -5 18 -8 25 -5 8 4 7 6 -4 6 -10 1 -22 10 -28 21 -10 19 -21
20 -195 20 l-185 0 0 -30z m143 -42 c-4 -7 -8 -20 -8 -28 0 -17 -35 -27 -35
-11 0 6 5 11 11 11 5 0 7 5 4 10 -8 14 3 30 21 30 10 0 12 -5 7 -12z m-71 -54
c-6 -61 -22 -65 -22 -5 0 38 4 51 13 48 7 -2 11 -18 9 -43z m-22 -114 c12 -8
11 -10 -7 -10 -13 0 -23 5 -23 10 0 13 11 13 30 0z m30 -30 c0 -5 -4 -10 -9
-10 -6 0 -13 5 -16 10 -3 6 1 10 9 10 9 0 16 -4 16 -10z"/>
<path d="M850 1792 c5 -2 9 -13 9 -25 -1 -17 -2 -18 -6 -4 -2 9 -13 17 -24 17
-11 0 -18 -4 -15 -9 3 -4 -1 -17 -9 -27 -14 -18 -16 -18 -36 9 -28 37 -41 34
-38 -7 2 -19 0 -38 -4 -42 -12 -12 -8 -46 6 -41 6 2 11 11 9 21 -2 10 4 16 15
16 10 0 29 3 43 7 22 6 24 5 11 -10 -11 -14 -11 -17 0 -17 19 1 50 25 42 34
-6 5 35 3 72 -4 22 -5 45 1 45 10 0 15 -30 12 -30 -2 0 -7 -5 -5 -11 4 -5 10
-9 24 -8 30 5 39 -1 45 -41 44 -23 0 -36 -2 -30 -4z m44 -48 c3 -8 2 -12 -4
-9 -6 3 -10 10 -10 16 0 14 7 11 14 -7z"/>
<path d="M1028 1782 c4 -10 7 -12 10 -4 5 17 47 15 62 -3 16 -19 40 -20 40 -1
0 10 11 12 44 9 24 -3 46 -1 49 4 3 5 -42 9 -103 10 -96 1 -108 -1 -102 -15z"/>
<path d="M1268 1793 c7 -3 16 -2 19 1 4 3 -2 6 -13 5 -11 0 -14 -3 -6 -6z"/>
<path d="M1654 1785 c15 -8 36 -15 45 -15 9 0 21 -4 27 -9 5 -4 24 -13 42 -19
32 -11 32 -11 32 24 l0 34 -87 0 c-84 0 -87 -1 -59 -15z"/>
<path d="M1354 1774 c3 -9 6 -18 6 -20 0 -2 7 -4 15 -4 13 0 14 4 5 20 -13 24
-35 27 -26 4z"/>
<path d="M1398 1783 c7 -3 16 -2 19 1 4 3 -2 6 -13 5 -11 0 -14 -3 -6 -6z"/>
<path d="M1665 1701 c11 -11 34 -23 50 -26 29 -6 28 -5 -10 19 -47 31 -67 34
-40 7z"/>
<path d="M770 1673 c5 -2 8 -9 4 -14 -3 -5 0 -9 6 -9 15 0 7 23 -8 26 -7 1 -8
0 -2 -3z"/>
<path d="M940 1661 c-15 -29 -12 -33 10 -14 21 19 26 33 10 33 -5 0 -14 -9
-20 -19z"/>
<path d="M270 1631 c0 -5 9 -7 20 -4 11 3 20 7 20 9 0 2 -9 4 -20 4 -11 0 -20
-4 -20 -9z"/>
<path d="M1760 1636 c0 -2 9 -6 20 -9 11 -3 18 -1 14 4 -5 9 -34 13 -34 5z"/>
<path d="M1630 1578 c0 -19 9 -41 22 -55 l21 -23 -31 0 c-18 0 -32 -5 -32 -11
0 -7 17 -9 53 -5 28 4 64 7 78 9 20 2 24 6 21 24 -2 12 -15 29 -28 38 -13 8
-24 22 -24 29 0 16 -21 26 -56 26 -20 0 -24 -5 -24 -32z"/>
<path d="M610 1589 c-19 -6 -42 -13 -50 -16 -8 -3 -18 -7 -22 -7 -21 -3 -17
-16 5 -16 14 0 29 5 32 11 4 6 13 8 21 5 17 -6 77 18 67 27 -7 8 -7 8 -53 -4z"/>
<path d="M965 1579 c-5 -14 -1 -27 9 -37 20 -21 25 -14 19 26 -6 37 -19 42
-28 11z"/>
<path d="M1010 1516 c0 -19 24 -37 62 -46 18 -5 58 -15 88 -23 53 -15 79 -10
66 11 -7 12 -43 23 -129 43 -32 7 -60 16 -63 21 -8 13 -24 9 -24 -6z"/>
<path d="M1378 1428 c-4 -76 -11 -104 -34 -151 -27 -54 -28 -60 -13 -85 23
-42 43 -38 65 10 20 44 54 62 77 39 6 -6 25 -11 41 -11 17 0 60 -11 96 -24 36
-14 93 -31 128 -39 l62 -14 0 67 0 66 -52 14 c-29 7 -60 17 -68 21 -8 4 -22
10 -30 14 -8 3 -26 12 -40 20 -14 8 -40 15 -57 15 -18 0 -33 4 -33 8 0 5 -13
7 -29 4 -27 -4 -31 0 -50 43 -24 55 -21 66 19 58 18 -3 30 -1 30 5 0 5 -17 13
-37 16 -21 4 -45 9 -54 12 -14 4 -17 -9 -21 -88z"/>
<path d="M205 1249 c-4 -6 -5 -12 -2 -15 2 -3 7 2 10 11 7 17 1 20 -8 4z"/>
<path d="M1375 1082 c-6 -31 28 -122 46 -122 18 0 19 48 2 95 -21 57 -39 67
-48 27z"/>
<path d="M1045 1056 c-30 -22 -23 -104 12 -133 l26 -21 38 30 38 31 -15 35
c-28 68 -60 87 -99 58z m65 -60 c0 -3 -4 -8 -10 -11 -5 -3 -10 -1 -10 4 0 6 5
11 10 11 6 0 10 -2 10 -4z"/>
<path d="M1458 876 c-4 -40 13 -141 23 -132 8 9 2 118 -9 146 -9 23 -10 23
-14 -14z"/>
<path d="M520 775 c0 -8 4 -15 10 -15 5 0 7 7 4 15 -4 8 -8 15 -10 15 -2 0 -4
-7 -4 -15z"/>
<path d="M1460 710 c0 -11 2 -20 4 -20 2 0 6 9 9 20 3 11 1 20 -4 20 -5 0 -9
-9 -9 -20z"/>
</g>
</svg>
